<svg xmlns="http://www.w3.org/2000/svg" xmlns:xlink="http://www.w3.org/1999/xlink" viewBox="0 0 675.87 76.05"><defs><style>.cls-1{fill:none;}.cls-2{fill:url(#linear-gradient);}.cls-3{fill:url(#linear-gradient-2);}.cls-4{fill:url(#linear-gradient-3);}.cls-5{fill:url(#linear-gradient-4);}.cls-6{fill:url(#linear-gradient-5);}.cls-7{fill:url(#linear-gradient-6);}.cls-8{fill:url(#linear-gradient-7);}.cls-9{fill:url(#linear-gradient-8);}.cls-10{fill:url(#linear-gradient-9);}.cls-11{fill:url(#linear-gradient-10);}.cls-12{fill:url(#linear-gradient-11);}.cls-13{fill:url(#linear-gradient-12);}.cls-14{fill:url(#linear-gradient-13);}.cls-15{clip-path:url(#clip-path);}.cls-16{fill:url(#linear-gradient-14);}.cls-17{clip-path:url(#clip-path-2);}.cls-18{fill:url(#linear-gradient-15);}.cls-19{clip-path:url(#clip-path-3);}.cls-20{fill:url(#linear-gradient-16);}.cls-21{clip-path:url(#clip-path-4);}.cls-22{fill:url(#linear-gradient-17);}</style><linearGradient id="linear-gradient" y1="30.63" x2="66.73" y2="30.63" gradientUnits="userSpaceOnUse"><stop offset="0" stop-color="#28404b"/><stop offset="1" stop-color="#46575e"/></linearGradient><linearGradient id="linear-gradient-2" x1="73.54" y1="38.2" x2="119.44" y2="38.2" xlink:href="#linear-gradient"/><linearGradient id="linear-gradient-3" x1="125.97" y1="38.2" x2="153.44" y2="38.2" xlink:href="#linear-gradient"/><linearGradient id="linear-gradient-4" x1="158.6" y1="30.21" x2="181.8" y2="30.21" xlink:href="#linear-gradient"/><linearGradient id="linear-gradient-5" x1="186.37" y1="38.2" x2="231.88" y2="38.2" xlink:href="#linear-gradient"/><linearGradient id="linear-gradient-6" x1="238.45" y1="37.64" x2="261.8" y2="37.64" xlink:href="#linear-gradient"/><linearGradient id="linear-gradient-7" x1="388.01" y1="30.63" x2="454.74" y2="30.63" xlink:href="#linear-gradient"/><linearGradient id="linear-gradient-8" x1="461.55" y1="38.2" x2="507.44" y2="38.2" xlink:href="#linear-gradient"/><linearGradient id="linear-gradient-9" x1="513.98" y1="38.2" x2="541.44" y2="38.2" xlink:href="#linear-gradient"/><linearGradient id="linear-gradient-10" x1="546.61" y1="30.21" x2="569.81" y2="30.21" xlink:href="#linear-gradient"/><linearGradient id="linear-gradient-11" x1="574.38" y1="38.2" x2="619.89" y2="38.2" xlink:href="#linear-gradient"/><linearGradient id="linear-gradient-12" x1="626.46" y1="37.64" x2="649.81" y2="37.64" xlink:href="#linear-gradient"/><linearGradient id="linear-gradient-13" x1="648.41" y1="38.2" x2="675.87" y2="38.2" xlink:href="#linear-gradient"/><clipPath id="clip-path"><path class="cls-1" d="M296.68,28.3c-12.23,3.6-11.48,22.06-10.31,27.62,1.31,6.26,6.5,7.22,7.94,4.36,1.67-3.29-1-4.14-2.25-16.51-.89-9.13,2.12-13.07,4.64-14.77a6.26,6.26,0,0,1,3.14-1.12c.22-.09.19-.13,0-.13a19.21,19.21,0,0,0-3.17.55"/></clipPath><linearGradient id="linear-gradient-14" x1="-2514.7" y1="2525.29" x2="-2513.27" y2="2525.29" gradientTransform="matrix(0, 20.7, 20.7, 0, -51974.01, 52076.92)" gradientUnits="userSpaceOnUse"><stop offset="0" stop-color="#28404b"/><stop offset="1" stop-color="#47585f"/></linearGradient><clipPath id="clip-path-2"><path class="cls-1" d="M336.85,4.51c-3.07,5.72,1.2,6.9,3.42,28.39,1.64,15.87-3.91,22.72-8.56,25.67a12.17,12.17,0,0,1-5.81,1.94c-1.62.66,4.29.34,6.06-.15,22.58-6.24,21-38.91,18.83-48.55-1.55-7-5.74-10-9.26-10a5.17,5.17,0,0,0-4.68,2.74"/></clipPath><linearGradient id="linear-gradient-15" x1="-2462.31" y1="2472.59" x2="-2460.88" y2="2472.59" gradientTransform="matrix(0, 39.02, 39.02, 0, -96140.46, 96085.4)" xlink:href="#linear-gradient"/><clipPath id="clip-path-3"><path class="cls-1" d="M298.65,21.67A15.92,15.92,0,0,0,292,26.36c-.18.21.1.49.35.34,1.65-1,4.77-2.34,8-1.19,5.29,1.88,6.69,7.33,9.69,13.76s4.8,12.6,9.4,15.91,11.3,1.5,14.59-3.26c.13-.19-.08-.42-.31-.36a6.81,6.81,0,0,1-5-.22c-2.35-1.34-4.5-6.26-8.22-14.12s-6.55-12.69-9.1-14.65a11.55,11.55,0,0,0-6.93-2,17.08,17.08,0,0,0-5.89,1.06"/></clipPath><linearGradient id="linear-gradient-16" x1="-2437.99" y1="2535.45" x2="-2436.47" y2="2535.45" gradientTransform="matrix(12.35, 22.56, 22.56, -12.35, -26779.95, 86346.91)" gradientUnits="userSpaceOnUse"><stop offset="0" stop-color="#f39e25"/><stop offset="1" stop-color="#f07824"/></linearGradient><clipPath id="clip-path-4"><path class="cls-1" d="M298.88,22.17c4.31-1.6,9.66-1.17,12.21.8,2.33,1.8,5,6.12,8.94,14.46l.93,2c3.25,6.92,5.22,11.09,7.52,12.4a5.65,5.65,0,0,0,2.83.68,9.47,9.47,0,0,0,1.8-.19,10.76,10.76,0,0,1-8.24,4.07,8.53,8.53,0,0,1-5-1.59c-3.49-2.51-5.31-6.74-7.42-11.63-.57-1.33-1.16-2.69-1.8-4.06-.53-1.15-1-2.26-1.47-3.32-2.21-5.09-4-9.11-8.54-10.74a8.67,8.67,0,0,0-2.83-.48,10.49,10.49,0,0,0-4.12.9,15.15,15.15,0,0,1,5.2-3.26m-.45-1A16.52,16.52,0,0,0,291.56,26a.71.71,0,0,0-.09.81.93.93,0,0,0,1.23.31,10.29,10.29,0,0,1,5.1-1.54,6.92,6.92,0,0,1,2.4.41c4.11,1.45,5.77,5.28,7.88,10.13.46,1.07.94,2.19,1.48,3.34.64,1.36,1.22,2.71,1.79,4,2.07,4.83,4,9.39,7.78,12.08a9.8,9.8,0,0,0,5.75,1.82,12,12,0,0,0,9.7-5.21.7.7,0,0,0,0-.78.86.86,0,0,0-.75-.41l-.25,0a8.57,8.57,0,0,1-2.3.35,4.43,4.43,0,0,1-2.21-.52c-2-1.13-4-5.42-7.06-11.91l-.93-2c-4-8.5-6.79-12.95-9.26-14.85a12.3,12.3,0,0,0-7.34-2,18,18,0,0,0-6.08,1.05"/></clipPath><linearGradient id="linear-gradient-17" x1="-2421.91" y1="2524.31" x2="-2420.37" y2="2524.31" gradientTransform="matrix(16.63, 23.75, 23.75, -16.63, -19388.37, 99506.69)" gradientUnits="userSpaceOnUse"><stop offset="0" stop-color="#f18825"/><stop offset="0.99" stop-color="#e67322"/><stop offset="1" stop-color="#e67322"/></linearGradient></defs><title>Asset 1</title><g id="Layer_2" data-name="Layer 2"><g id="Layer_1-2" data-name="Layer 1"><polygon class="cls-2" points="56.13 0.83 33.46 47.51 10.57 0.83 8.44 0.83 0 60.42 7.14 60.42 12.54 20.43 32.18 60.42 34.67 60.42 54.08 20.74 59.51 60.42 66.73 60.42 58.24 0.83 56.13 0.83"/><path class="cls-3" d="M112.47,22.36a21.47,21.47,0,0,0-6.27-5.14,20.86,20.86,0,0,0-9.88-2.35A21.82,21.82,0,0,0,80.2,21.71a22.68,22.68,0,0,0-6.66,16.37,23.07,23.07,0,0,0,6.6,16.58,22.24,22.24,0,0,0,25.76,4.65,23.77,23.77,0,0,0,6.57-5v6.07h7V16h-7Zm-4.32,4.05a16.61,16.61,0,0,1,4.67,12,17.3,17.3,0,0,1-2.08,8.49,15.28,15.28,0,0,1-5.91,5.92,15.81,15.81,0,0,1-16,0,16.08,16.08,0,0,1-5.92-6.18,16.87,16.87,0,0,1,0-16.73,15.9,15.9,0,0,1,5.88-6.1,15.6,15.6,0,0,1,8-2.16,15.12,15.12,0,0,1,11.39,4.78"/><path class="cls-4" d="M140.27,21.48c2.56,0,5.25,1.37,8,4.08l.6.58,4.56-4.76L153,20.9c-4.11-4-8.28-6-12.4-6a12.32,12.32,0,0,0-9,3.47A11.64,11.64,0,0,0,128.08,27,11.92,11.92,0,0,0,130.29,34c1.45,2,4.17,4.11,8.11,6.17,3.47,1.78,5.71,3.26,6.66,4.39a5.77,5.77,0,0,1,1.37,3.8,5.91,5.91,0,0,1-2.09,4.52,7.12,7.12,0,0,1-5.05,1.92c-2.87,0-5.66-1.52-8.29-4.52l-.61-.69L126,54.7l.34.43a16,16,0,0,0,5.82,4.69,16.7,16.7,0,0,0,7.4,1.71,13.36,13.36,0,0,0,9.78-3.91,12.93,12.93,0,0,0,3.89-9.46A12.05,12.05,0,0,0,150.91,41c-1.55-2.09-4.35-4.18-8.57-6.39-3.24-1.68-5.37-3.15-6.35-4.36a5.45,5.45,0,0,1-1.41-3.56A4.82,4.82,0,0,1,136.26,23a5.62,5.62,0,0,1,4-1.56"/><polygon class="cls-5" points="173.12 0 166.07 0 166.07 15.97 158.6 15.97 158.6 22.19 166.07 22.19 166.07 60.42 173.12 60.42 173.12 22.19 181.8 22.19 181.8 15.97 173.12 15.97 173.12 0"/><path class="cls-6" d="M231.88,38.63c-.06-6-1.69-11.09-4.84-15.12a21.77,21.77,0,0,0-18-8.64,21.1,21.1,0,0,0-17.51,8.44,23.91,23.91,0,0,0-5.13,15,24.16,24.16,0,0,0,6,16c4.05,4.76,9.74,7.18,16.9,7.18a24.22,24.22,0,0,0,8.73-1.5A21.76,21.76,0,0,0,225,55.66a26.2,26.2,0,0,0,5.4-7.48l.3-.59-5.93-3.14-.39.64A25.1,25.1,0,0,1,219.87,51a16.07,16.07,0,0,1-5,2.89,17.38,17.38,0,0,1-6,1.09,14.15,14.15,0,0,1-10.73-4.55,16.8,16.8,0,0,1-4.52-11.1h38.28Zm-37.51-5.5a17.1,17.1,0,0,1,4.5-7.67,14.74,14.74,0,0,1,10.22-3.87A16.12,16.12,0,0,1,216,23.13a14.44,14.44,0,0,1,5.26,4.06,17.21,17.21,0,0,1,2.84,5.94Z"/><path class="cls-7" d="M255.9,14.87a11.19,11.19,0,0,0-6.25,2,18.18,18.18,0,0,0-4,3.79V16h-7.16V60.42h7.16V45.16c0-7.37.34-12.32,1-14.7a13.9,13.9,0,0,1,3.66-6.72A7.16,7.16,0,0,1,255,21.67a6.73,6.73,0,0,1,2.56.69l.66.28,3.58-5.84-.64-.36a10.76,10.76,0,0,0-5.26-1.57"/><polygon class="cls-8" points="444.13 0.83 421.47 47.51 398.79 1.25 398.58 0.83 396.45 0.83 388.01 60.42 395.15 60.42 400.54 20.43 420.19 60.42 422.68 60.42 442.09 20.74 447.51 60.42 454.74 60.42 446.25 0.83 444.13 0.83"/><path class="cls-9" d="M500.48,22.36a21.38,21.38,0,0,0-6.28-5.14,20.8,20.8,0,0,0-9.88-2.35,21.8,21.8,0,0,0-16.11,6.84,22.64,22.64,0,0,0-6.66,16.37,23.1,23.1,0,0,0,6.59,16.58,22.25,22.25,0,0,0,25.77,4.65,23.62,23.62,0,0,0,6.57-5v6.07h7V16h-7Zm-4.31,4.05a16.64,16.64,0,0,1,4.66,12,17.3,17.3,0,0,1-2.08,8.49,15.35,15.35,0,0,1-5.91,5.92,15.81,15.81,0,0,1-16,0,16.18,16.18,0,0,1-5.93-6.18,16.94,16.94,0,0,1,0-16.73,16,16,0,0,1,5.88-6.1,15.66,15.66,0,0,1,8-2.16,15.16,15.16,0,0,1,11.4,4.78"/><path class="cls-10" d="M528.28,21.48c2.55,0,5.25,1.37,8,4.08l.6.58,4.55-4.76L541,20.9c-4.11-4-8.28-6-12.41-6a12.28,12.28,0,0,0-8.94,3.47A11.64,11.64,0,0,0,516.09,27,11.92,11.92,0,0,0,518.3,34c1.44,2,4.17,4.11,8.11,6.17,3.47,1.78,5.71,3.26,6.66,4.39a5.77,5.77,0,0,1,1.37,3.8,5.91,5.91,0,0,1-2.09,4.52,7.12,7.12,0,0,1-5.05,1.92c-2.87,0-5.66-1.52-8.29-4.52l-.61-.69L514,54.7l.34.43a16,16,0,0,0,5.81,4.69,16.77,16.77,0,0,0,7.41,1.71,13.36,13.36,0,0,0,9.78-3.91,12.93,12.93,0,0,0,3.89-9.46A12.05,12.05,0,0,0,538.92,41c-1.55-2.09-4.35-4.18-8.58-6.39-3.23-1.68-5.37-3.15-6.34-4.35a5.5,5.5,0,0,1-1.41-3.57A4.81,4.81,0,0,1,524.26,23a5.64,5.64,0,0,1,4-1.56"/><polygon class="cls-11" points="561.12 0 554.08 0 554.08 15.97 546.61 15.97 546.61 22.19 554.08 22.19 554.08 60.42 561.12 60.42 561.12 22.19 569.81 22.19 569.81 15.97 561.12 15.97 561.12 0"/><path class="cls-12" d="M619.89,38.63c-.06-6-1.69-11.09-4.85-15.12a21.75,21.75,0,0,0-18-8.64,21.11,21.11,0,0,0-17.52,8.44,23.88,23.88,0,0,0-5.12,15,24.21,24.21,0,0,0,6,16c4.06,4.76,9.75,7.18,16.91,7.18a24.25,24.25,0,0,0,8.73-1.5A21.61,21.61,0,0,0,613,55.66a26,26,0,0,0,5.41-7.48l.29-.59-5.92-3.14-.39.64A25,25,0,0,1,607.87,51a15.73,15.73,0,0,1-5,2.89,17.33,17.33,0,0,1-6,1.09,14.14,14.14,0,0,1-10.73-4.55,16.8,16.8,0,0,1-4.52-11.1h38.28Zm-37.52-5.5a17.1,17.1,0,0,1,4.5-7.67,14.78,14.78,0,0,1,10.22-3.87A16.09,16.09,0,0,1,604,23.13a14.48,14.48,0,0,1,5.27,4.06,17,17,0,0,1,2.83,5.94Z"/><path class="cls-13" d="M649.17,16.44a10.69,10.69,0,0,0-5.26-1.57,11.19,11.19,0,0,0-6.25,2,18.18,18.18,0,0,0-4,3.79V16h-7.16V60.42h7.16V45.16c0-7.37.34-12.32,1-14.7a13.9,13.9,0,0,1,3.66-6.72A7.16,7.16,0,0,1,643,21.67a6.73,6.73,0,0,1,2.56.69l.66.28,3.58-5.84Z"/><path class="cls-14" d="M664.77,34.61c-3.23-1.68-5.37-3.15-6.35-4.35A5.55,5.55,0,0,1,657,26.69,4.82,4.82,0,0,1,658.69,23a5.64,5.64,0,0,1,4-1.56c2.55,0,5.25,1.37,8,4.08l.59.58,4.56-4.76-.48-.48c-4.11-4-8.28-6-12.41-6A12.28,12.28,0,0,0,654,18.34,11.6,11.6,0,0,0,650.52,27a12,12,0,0,0,2.2,7.07c1.45,2,4.18,4.11,8.12,6.17,3.47,1.78,5.71,3.26,6.66,4.39a5.77,5.77,0,0,1,1.37,3.8,6,6,0,0,1-2.09,4.52,7.12,7.12,0,0,1-5,1.92c-2.88,0-5.67-1.52-8.29-4.52l-.61-.69-4.42,5.07.33.43a16,16,0,0,0,5.82,4.69,16.76,16.76,0,0,0,7.4,1.71,13.37,13.37,0,0,0,9.79-3.91,12.93,12.93,0,0,0,3.89-9.46,12,12,0,0,0-2.3-7.16c-1.54-2.09-4.34-4.18-8.57-6.39"/><g class="cls-15"><rect class="cls-16" x="284.45" y="27.75" width="15.61" height="35.39"/></g><g class="cls-17"><rect class="cls-18" x="324.28" y="1.77" width="30.26" height="59.4"/></g><g class="cls-19"><polygon class="cls-20" points="324.44 4.31 351.72 49.79 301.62 74.84 274.35 29.36 324.44 4.31"/></g><g class="cls-21"><polygon class="cls-22" points="320.48 1.48 353.95 45.15 305.61 76.06 272.13 32.38 320.48 1.48"/></g></g></g></svg>